<svg width="31" height="26" viewBox="0 0 31 26" fill="none" xmlns="http://www.w3.org/2000/svg">
<path d="M26.35 0.58252H4.65C3.41674 0.58252 2.234 1.07638 1.36195 1.95546C0.489909 2.83453 0 4.02682 0 5.27002V20.895C0 22.1382 0.489909 23.3305 1.36195 24.2096C2.234 25.0887 3.41674 25.5825 4.65 25.5825H26.35C27.5833 25.5825 28.766 25.0887 29.638 24.2096C30.5101 23.3305 31 22.1382 31 20.895V5.27002C31 4.02682 30.5101 2.83453 29.638 1.95546C28.766 1.07638 27.5833 0.58252 26.35 0.58252ZM26.35 3.70752L16.275 10.6919C16.0394 10.829 15.7721 10.9012 15.5 10.9012C15.2279 10.9012 14.9606 10.829 14.725 10.6919L4.65 3.70752H26.35Z" fill="white"/>
</svg>
