<svg width="23" height="23" viewBox="0 0 23 23" fill="none" xmlns="http://www.w3.org/2000/svg">
<path d="M17.4411 0.339355H4.98316C3.66155 0.339355 2.39406 0.864366 1.45953 1.79889C0.52501 2.73342 0 4.0009 0 5.32252V17.7804C0 19.102 0.52501 20.3695 1.45953 21.3041C2.39406 22.2386 3.66155 22.7636 4.98316 22.7636H17.4411C18.7627 22.7636 20.0302 22.2386 20.9647 21.3041C21.8992 20.3695 22.4242 19.102 22.4242 17.7804V5.32252C22.4242 4.0009 21.8992 2.73342 20.9647 1.79889C20.0302 0.864366 18.7627 0.339355 17.4411 0.339355ZM17.1047 7.8141L15.535 14.4293C15.4558 14.7688 15.2831 15.0795 15.0366 15.3261C14.79 15.5727 14.4793 15.7453 14.1397 15.8245L7.47475 17.4441C7.17858 17.5066 6.87149 17.4942 6.58133 17.408C6.29117 17.3218 6.0271 17.1646 5.81306 16.9505C5.59903 16.7365 5.44179 16.4724 5.35561 16.1823C5.26943 15.8921 5.25703 15.585 5.31953 15.2888L6.88923 8.62387C6.9718 8.28719 7.14581 7.97988 7.39203 7.73586C7.63825 7.49183 7.94711 7.32059 8.28451 7.24104L14.9495 5.67134C15.2444 5.60957 15.5501 5.62204 15.839 5.70764C16.1279 5.79323 16.3911 5.94927 16.6047 6.16172C16.8184 6.37418 16.976 6.6364 17.0633 6.92481C17.1505 7.21323 17.1648 7.51882 17.1047 7.8141Z" fill="white"/>
</svg>
