<svg width="26" height="31" viewBox="0 0 26 31" fill="none" xmlns="http://www.w3.org/2000/svg">
<path d="M21.125 9.46638H19.5V6.6157C19.5 5.0156 18.8152 3.48104 17.5962 2.3496C16.3772 1.21816 14.7239 0.58252 13 0.58252C11.2761 0.58252 9.62279 1.21816 8.40381 2.3496C7.18482 3.48104 6.5 5.0156 6.5 6.6157V9.46638H4.875C3.58207 9.46638 2.34209 9.94311 1.42785 10.7917C0.513615 11.6403 0 12.7912 0 13.9913V26.0576C0 27.2577 0.513615 28.4086 1.42785 29.2572C2.34209 30.1058 3.58207 30.5825 4.875 30.5825H21.125C22.4179 30.5825 23.6579 30.1058 24.5721 29.2572C25.4864 28.4086 26 27.2577 26 26.0576V13.9913C26 12.7912 25.4864 11.6403 24.5721 10.7917C23.6579 9.94311 22.4179 9.46638 21.125 9.46638ZM9.75 6.6157C9.72814 5.79413 10.0579 4.99798 10.667 4.40152C11.2761 3.80506 12.115 3.45688 13 3.4332C13.885 3.45688 14.7239 3.80506 15.333 4.40152C15.9421 4.99798 16.2719 5.79413 16.25 6.6157V9.46638H9.75V6.6157ZM13 24.5493C12.0358 24.5493 11.0933 24.284 10.2916 23.7868C9.48991 23.2896 8.86506 22.5829 8.49609 21.7561C8.12711 20.9292 8.03057 20.0194 8.21867 19.1417C8.40677 18.2639 8.87107 17.4577 9.55285 16.8249C10.2346 16.1921 11.1033 15.7611 12.0489 15.5865C12.9946 15.4119 13.9748 15.5015 14.8656 15.844C15.7564 16.1865 16.5177 16.7664 17.0534 17.5106C17.5891 18.2547 17.875 19.1295 17.875 20.0245C17.875 21.2245 17.3614 22.3754 16.4471 23.224C15.5329 24.0726 14.2929 24.5493 13 24.5493Z" fill="white"/>
</svg>
